<svg version="1.1" id="Layer_1" xmlns="http://www.w3.org/2000/svg" xmlns:xlink="http://www.w3.org/1999/xlink" x="0px" y="0px"
	 width="100%" viewBox="0 0 1187 1187" enable-background="new 0 0 1187 1187" xml:space="preserve">
<path fill="#FFFFFF" opacity="1.000000" stroke="none" 
	d="
M1.000000,287.000000 
	C1.000000,192.666672 1.023952,98.833305 0.904313,5.000122 
	C0.899947,1.575955 1.576624,0.905256 5.000024,0.906124 
	C398.000000,1.005765 791.000000,1.005765 1184.000000,0.906124 
	C1187.423340,0.905256 1188.094849,1.576624 1188.093994,5.000024 
	C1187.994263,398.000000 1187.994385,791.000000 1188.093994,1184.000000 
	C1188.094849,1187.423340 1187.423340,1188.094727 1184.000000,1188.093872 
	C791.000000,1187.994263 398.000000,1187.989014 5.000056,1188.141846 
	C0.694525,1188.143555 0.964669,1186.435425 0.965036,1183.500000 
	C1.002407,884.833313 1.000000,586.166687 1.000000,287.000000 
z"/>
<path fill="#000000" opacity="1.000000" stroke="none" 
	d="
M1174.220215,1173.584961 
	C1174.011597,1174.039429 1173.586060,1174.256958 1173.352783,1174.309326 
	C1171.459717,1174.578125 1169.791260,1174.479614 1168.126831,1174.479614 
	C785.565735,1174.484253 403.004578,1174.484375 20.443455,1174.482056 
	C18.939714,1174.482056 17.434742,1174.532471 15.498297,1174.165527 
	C15.019441,1172.749390 14.935511,1171.585571 14.935505,1170.421753 
	C14.933365,785.616577 14.936998,400.811401 15.002273,15.546652 
	C16.411655,14.090396 17.967125,14.536009 19.423882,14.535970 
	C403.657379,14.525546 787.890869,14.494780 1172.621338,14.584812 
	C1173.118164,14.638277 1173.585449,14.742673 1173.798584,14.851651 
	C1174.868774,16.528725 1174.465210,18.231228 1174.465210,19.867098 
	C1174.484863,403.122253 1174.484253,786.377441 1174.483276,1169.632568 
	C1174.483276,1170.798706 1174.510498,1171.965576 1174.220215,1173.584961 
z"/>
<path fill="#435671" opacity="1.000000" stroke="none" 
	d="
M1174.399170,1173.879395 
	C1174.008667,787.987854 1174.005615,401.936310 1174.007080,15.422689 
	C1175.981445,16.082750 1174.949341,17.949755 1174.949463,19.418196 
	C1175.001343,402.859802 1175.000244,786.301453 1174.991211,1169.743042 
	C1174.991211,1171.068481 1174.857788,1172.393799 1174.399170,1173.879395 
z"/>
<path fill="#949FAE" opacity="1.000000" stroke="none" 
	d="
M1172.803467,14.385954 
	C1170.969849,14.758835 1168.821533,14.984909 1166.673218,14.985018 
	C783.106567,15.004321 399.539917,15.007527 15.518642,15.049202 
	C16.710123,12.892809 19.046869,14.059220 21.007547,14.058792 
	C304.005463,13.997053 587.003418,13.999931 870.001343,13.999931 
	C969.000610,13.999931 1067.999878,13.999213 1166.999146,14.005501 
	C1168.829102,14.005617 1170.658936,14.089061 1172.803467,14.385954 
z"/>
<path fill="#949FAE" opacity="1.000000" stroke="none" 
	d="
M15.230053,1174.294312 
	C17.229147,1173.942139 19.394121,1173.996460 21.559093,1173.996460 
	C403.113739,1174.000122 784.668396,1173.999878 1166.223022,1174.002197 
	C1168.222046,1174.002197 1170.221191,1174.034668 1172.669922,1174.206787 
	C1171.644531,1175.552979 1169.908081,1174.971924 1168.304932,1174.972046 
	C785.484802,1175.000732 402.664734,1175.000366 19.844631,1174.986572 
	C18.361729,1174.986450 16.878832,1174.783569 15.230053,1174.294312 
z"/>
<path fill="#DCDDE0" opacity="1.000000" stroke="none" 
	d="
M681.739990,145.338058 
	C683.639587,145.111801 685.302002,145.006973 686.964417,145.006897 
	C844.126709,144.999435 1001.289001,145.020081 1158.451172,144.897675 
	C1162.915283,144.894196 1164.128418,145.891113 1164.116211,150.488693 
	C1163.947388,214.319794 1163.956665,278.151581 1164.106079,341.982788 
	C1164.115723,346.142120 1163.139648,347.156494 1158.978882,347.109741 
	C1137.815552,346.871887 1116.646851,347.111786 1095.483032,346.897369 
	C1091.660156,346.858612 1090.914551,347.908142 1090.916870,351.562042 
	C1091.015381,511.224182 1091.016846,670.886353 1090.910400,830.548523 
	C1090.907959,834.282654 1091.776733,835.139709 1095.497925,835.101440 
	C1116.161743,834.889099 1136.828979,834.999756 1157.494995,834.999512 
	C1163.983765,834.999451 1163.999023,834.998901 1163.999512,841.670166 
	C1164.003784,896.668640 1164.001953,951.667053 1164.001953,1006.665527 
	C1164.001953,1016.331909 1163.920410,1025.999390 1164.056885,1035.663940 
	C1164.092651,1038.192871 1163.539062,1039.444214 1160.794312,1039.024292 
	C1159.817139,1038.874756 1158.798096,1039.000000 1157.798096,1039.000000 
	C1026.635132,1039.000000 895.472107,1038.984375 764.309082,1039.053955 
	C758.755798,1039.056885 754.556152,1038.101807 752.772949,1031.903564 
	C752.183655,1029.855103 749.341980,1028.736206 747.786194,1026.699097 
	C742.598572,1019.905884 736.629272,1013.714722 731.324463,1007.004456 
	C725.572144,999.728088 719.536682,992.677856 713.802368,985.383911 
	C709.920593,980.446350 705.269043,975.759155 701.692078,970.710571 
	C699.270630,967.292847 695.536560,964.958252 693.898071,960.988647 
	C693.380310,959.734192 692.350342,958.717102 691.507202,957.642700 
	C686.783997,951.624512 681.954895,945.585388 676.896057,939.969421 
	C672.758240,935.375793 669.697205,929.971497 665.100037,925.695801 
	C661.054626,921.933289 658.738953,916.286255 654.633789,912.619629 
	C650.192444,908.652710 646.631226,903.809448 643.210754,899.339661 
	C640.190002,895.392090 635.320007,892.522034 634.023682,887.288147 
	C633.760193,886.224426 632.985962,886.239380 632.424011,885.752441 
	C627.607361,881.579407 623.332825,876.489746 619.932007,871.510437 
	C616.330078,866.236694 611.726685,861.923645 608.035767,856.814758 
	C604.709961,852.211304 600.251038,848.049316 596.834900,843.614807 
	C593.017090,838.658630 589.423523,833.316284 585.135376,828.772705 
	C578.892883,822.158142 574.689514,814.049377 568.142944,807.516907 
	C565.005737,804.386230 561.380676,800.452393 558.813232,796.105957 
	C556.189331,791.664001 551.507080,788.452637 548.793274,784.045288 
	C545.390503,778.519043 540.307190,774.549744 536.621521,769.228821 
	C533.427124,764.617249 528.780151,760.589905 525.696716,755.827087 
	C522.261230,750.520508 516.547485,747.298035 513.971497,741.214905 
	C512.713135,738.243347 509.663361,735.759399 507.388153,733.336609 
	C502.773895,728.423035 498.617340,723.094421 494.505524,717.876465 
	C491.383972,713.915222 487.181702,710.755859 484.974915,706.066772 
	C484.770538,705.632446 484.612946,705.076782 484.258057,704.827637 
	C479.096375,701.203857 476.162537,695.531860 472.257294,690.869873 
	C468.561249,686.457642 464.084839,682.543457 461.283020,677.134094 
	C459.306152,673.317383 455.701416,669.951904 452.633301,666.949768 
	C448.707214,663.108154 446.678589,657.845337 441.868011,654.494995 
	C439.749390,653.019531 437.952972,649.043884 435.002838,645.331787 
	C435.002838,647.655151 435.002869,648.876831 435.002869,650.098450 
	C435.002869,710.096802 435.058105,770.095276 434.887787,830.093140 
	C434.875458,834.443176 436.156616,835.136780 440.126740,835.097534 
	C461.124084,834.889465 482.124603,834.997192 503.124023,835.000244 
	C509.207062,835.001099 510.000061,835.739197 510.000610,841.536743 
	C510.006409,905.868286 509.964874,970.199890 510.102844,1034.531128 
	C510.111053,1038.361694 509.080872,1039.087646 505.439026,1039.085327 
	C347.110168,1038.987183 188.781250,1038.984131 30.452435,1039.099365 
	C26.588549,1039.102173 25.905958,1038.027588 25.912334,1034.419434 
	C26.027210,969.421448 26.037901,904.423096 25.892691,839.425293 
	C25.883936,835.506592 27.050167,834.884644 30.608685,834.913757 
	C51.606701,835.085205 72.607391,834.923096 93.605667,835.077820 
	C96.945824,835.102417 98.075462,834.491089 98.073128,830.830200 
	C97.971207,671.001404 97.965073,511.172516 98.098969,351.343781 
	C98.102425,347.222656 96.657097,346.911072 93.285500,346.932617 
	C72.286934,347.066681 51.286369,346.913147 30.288412,347.088165 
	C26.816711,347.117126 25.902864,346.305756 25.909378,342.759552 
	C26.027821,278.261566 26.026690,213.763245 25.911484,149.265259 
	C25.905220,145.758224 26.759205,144.913116 30.265316,144.915771 
	C160.428268,145.014603 290.591309,145.005875 420.754333,144.967468 
	C424.727692,144.966293 427.140015,146.474670 428.433929,150.331787 
	C428.699707,151.124084 429.810791,152.335922 430.678528,153.060822 
	C437.882263,159.078873 442.255402,167.451508 448.310699,174.436630 
	C453.391632,180.297821 458.588654,186.205475 463.281799,192.339127 
	C468.067932,198.594315 473.282806,204.362656 478.192902,210.414429 
	C480.637177,213.427048 482.844727,216.849472 485.534637,219.866089 
	C487.950653,222.575516 490.542206,225.232880 492.697266,228.049911 
	C500.159882,237.804626 508.497345,246.827820 516.091370,256.382416 
	C521.936646,263.736877 527.559021,271.512909 533.648376,278.649689 
	C539.842590,285.909454 546.212585,293.289520 552.152161,300.613068 
	C557.629822,307.367065 563.339600,314.434326 568.277649,321.883301 
	C571.379700,326.562805 575.220459,331.103790 579.494690,335.104431 
	C582.629456,338.038544 584.898682,341.831299 587.857971,345.042938 
	C592.053101,349.595795 595.531006,354.807983 599.333679,359.724304 
	C603.238953,364.773224 607.434143,369.621979 611.513306,374.492279 
	C615.064331,378.732056 618.129578,383.527618 622.192261,387.203186 
	C625.925781,390.580933 629.376770,394.652740 632.029053,398.334961 
	C637.431824,405.835785 643.555481,412.730988 649.188721,419.998169 
	C655.134155,427.668060 662.090759,434.736572 667.841736,442.403259 
	C672.914917,449.166565 680.224121,454.371796 683.307434,462.645416 
	C683.520935,463.218292 684.111694,463.720978 684.641052,464.094727 
	C689.187317,467.304230 692.296631,472.011658 695.392395,476.295868 
	C701.211121,484.348480 707.719360,491.795471 714.002258,499.419647 
	C720.756165,507.615479 727.364197,515.946533 734.191956,524.085999 
	C740.971375,532.167786 747.703796,540.336304 754.997375,549.911438 
	C754.997375,547.197632 754.997375,545.824463 754.997375,544.451233 
	C754.997314,480.286346 754.948303,416.121368 755.107849,351.956879 
	C755.118469,347.683929 753.958618,346.857178 749.911682,346.898010 
	C728.414490,347.115082 706.912598,346.881287 685.415649,347.109283 
	C681.504395,347.150757 680.886841,345.965912 680.893127,342.398895 
	C681.008179,277.233856 680.984253,212.068542 681.070923,146.439270 
	C681.268982,145.819611 681.385925,145.664001 681.739990,145.338058 
z"/>
<path fill="#E9EAED" opacity="1.000000" stroke="none" 
	d="
M681.716064,145.122406 
	C681.888916,145.428543 681.733765,145.640320 681.331787,145.889130 
	C681.252930,145.675842 681.353943,145.376465 681.716064,145.122406 
z"/>
</svg>